<mxfile modified="2021-02-01T15:33:45.804Z" host="7ad4478a-6d4b-44b4-9131-7c5502b3fd35" agent="5.0 (Macintosh; Intel Mac OS X 10_15_7) AppleWebKit/537.36 (KHTML, like Gecko) Code/1.52.1 Chrome/83.0.4103.122 Electron/9.3.5 Safari/537.36" etag="lBDwVBSb8Eu4943DSEj1" version="13.10.0" type="embed">
    <diagram id="Ht1M8jgEwFfnCIfOTk4-" name="Page-1">
        <mxGraphModel dx="898" dy="635" grid="1" gridSize="10" guides="1" tooltips="1" connect="1" arrows="1" fold="1" page="1" pageScale="1" pageWidth="1169" pageHeight="827" math="0" shadow="0">
            <root>
                <mxCell id="0"/>
                <mxCell id="1" parent="0"/>
                <mxCell id="80oOBuQybgI6wOpb_mNg-7" value="VPC" style="outlineConnect=0;gradientColor=none;html=1;whiteSpace=wrap;fontSize=12;fontStyle=0;shape=mxgraph.aws4.group;grIcon=mxgraph.aws4.group_vpc;fillColor=none;verticalAlign=top;align=left;spacingLeft=30;fontColor=#879196;dashed=0;strokeColor=#009900;" parent="1" vertex="1">
                    <mxGeometry x="80" y="90" width="930" height="420" as="geometry"/>
                </mxCell>
                <mxCell id="80oOBuQybgI6wOpb_mNg-19" value="" style="rounded=1;arcSize=10;dashed=0;fillColor=#dae8fc;strokeWidth=2;strokeColor=#6c8ebf;" parent="1" vertex="1">
                    <mxGeometry x="695" y="204.38" width="120" height="155.62" as="geometry"/>
                </mxCell>
                <mxCell id="80oOBuQybgI6wOpb_mNg-32" value="Public subnet" style="points=[[0,0],[0.25,0],[0.5,0],[0.75,0],[1,0],[1,0.25],[1,0.5],[1,0.75],[1,1],[0.75,1],[0.5,1],[0.25,1],[0,1],[0,0.75],[0,0.5],[0,0.25]];outlineConnect=0;gradientColor=none;html=1;whiteSpace=wrap;fontSize=12;fontStyle=0;shape=mxgraph.aws4.group;grIcon=mxgraph.aws4.group_security_group;grStroke=0;strokeColor=#248814;fillColor=#E9F3E6;verticalAlign=top;align=left;spacingLeft=30;fontColor=#248814;dashed=0;" parent="1" vertex="1">
                    <mxGeometry x="290" y="200" width="260" height="160" as="geometry"/>
                </mxCell>
                <mxCell id="80oOBuQybgI6wOpb_mNg-1" value="Auto Scaling group" style="points=[[0,0],[0.25,0],[0.5,0],[0.75,0],[1,0],[1,0.25],[1,0.5],[1,0.75],[1,1],[0.75,1],[0.5,1],[0.25,1],[0,1],[0,0.75],[0,0.5],[0,0.25]];outlineConnect=0;gradientColor=none;html=1;whiteSpace=wrap;fontSize=12;fontStyle=0;shape=mxgraph.aws4.groupCenter;grIcon=mxgraph.aws4.group_auto_scaling_group;grStroke=1;strokeColor=#D86613;fillColor=none;verticalAlign=top;align=center;fontColor=#D86613;dashed=1;spacingTop=25;" parent="1" vertex="1">
                    <mxGeometry x="220" y="150" width="435" height="250" as="geometry"/>
                </mxCell>
                <mxCell id="UEzPUAAOIrF-is8g5C7q-116" value="Amazon S3" style="outlineConnect=0;fontColor=#232F3E;gradientColor=#60A337;gradientDirection=north;fillColor=#277116;strokeColor=#ffffff;dashed=0;verticalLabelPosition=bottom;verticalAlign=top;align=center;html=1;fontSize=12;fontStyle=0;aspect=fixed;shape=mxgraph.aws4.resourceIcon;resIcon=mxgraph.aws4.s3;labelBackgroundColor=#ffffff;" parent="1" vertex="1">
                    <mxGeometry x="770" y="220" width="30" height="30" as="geometry"/>
                </mxCell>
                <mxCell id="80oOBuQybgI6wOpb_mNg-3" value="ECR" style="outlineConnect=0;fontColor=#232F3E;gradientColor=#F78E04;gradientDirection=north;fillColor=#D05C17;strokeColor=#ffffff;dashed=0;verticalLabelPosition=bottom;verticalAlign=top;align=center;html=1;fontSize=12;fontStyle=0;aspect=fixed;shape=mxgraph.aws4.resourceIcon;resIcon=mxgraph.aws4.ecr;" parent="1" vertex="1">
                    <mxGeometry x="310" y="440" width="50" height="50" as="geometry"/>
                </mxCell>
                <mxCell id="lsDsI2hCd1Bi6timIz1T-1" style="edgeStyle=orthogonalEdgeStyle;rounded=0;orthogonalLoop=1;jettySize=auto;html=1;entryX=0.5;entryY=1;entryDx=0;entryDy=0;endArrow=blockThin;endFill=1;" parent="1" source="80oOBuQybgI6wOpb_mNg-4" target="80oOBuQybgI6wOpb_mNg-33" edge="1">
                    <mxGeometry relative="1" as="geometry">
                        <Array as="points">
                            <mxPoint x="420" y="390"/>
                            <mxPoint x="420" y="390"/>
                        </Array>
                    </mxGeometry>
                </mxCell>
                <mxCell id="lsDsI2hCd1Bi6timIz1T-2" value="" style="edgeStyle=orthogonalEdgeStyle;rounded=0;orthogonalLoop=1;jettySize=auto;html=1;endArrow=blockThin;endFill=1;" parent="1" source="80oOBuQybgI6wOpb_mNg-4" target="80oOBuQybgI6wOpb_mNg-3" edge="1">
                    <mxGeometry relative="1" as="geometry"/>
                </mxCell>
                <mxCell id="80oOBuQybgI6wOpb_mNg-4" value="ECS" style="outlineConnect=0;fontColor=#232F3E;gradientColor=#F78E04;gradientDirection=north;fillColor=#D05C17;strokeColor=#ffffff;dashed=0;verticalLabelPosition=bottom;verticalAlign=top;align=center;html=1;fontSize=12;fontStyle=0;aspect=fixed;shape=mxgraph.aws4.resourceIcon;resIcon=mxgraph.aws4.ecs;" parent="1" vertex="1">
                    <mxGeometry x="397.75" y="446.25" width="37.5" height="37.5" as="geometry"/>
                </mxCell>
                <mxCell id="80oOBuQybgI6wOpb_mNg-9" value="RDS Mysql" style="outlineConnect=0;dashed=0;verticalLabelPosition=bottom;verticalAlign=top;align=center;html=1;shape=mxgraph.aws3.rds;fillColor=#2E73B8;gradientColor=none;" parent="1" vertex="1">
                    <mxGeometry x="770" y="290" width="30" height="31.5" as="geometry"/>
                </mxCell>
                <mxCell id="80oOBuQybgI6wOpb_mNg-14" style="edgeStyle=orthogonalEdgeStyle;rounded=0;orthogonalLoop=1;jettySize=auto;html=1;exitX=0.5;exitY=1;exitDx=0;exitDy=0;exitPerimeter=0;" parent="1" source="80oOBuQybgI6wOpb_mNg-12" target="80oOBuQybgI6wOpb_mNg-1" edge="1">
                    <mxGeometry relative="1" as="geometry">
                        <Array as="points">
                            <mxPoint x="640" y="70"/>
                            <mxPoint x="640" y="140"/>
                            <mxPoint x="420" y="140"/>
                        </Array>
                        <mxPoint x="410" y="160" as="targetPoint"/>
                    </mxGeometry>
                </mxCell>
                <mxCell id="80oOBuQybgI6wOpb_mNg-12" value="Route 53" style="outlineConnect=0;dashed=0;verticalLabelPosition=bottom;verticalAlign=top;align=center;html=1;shape=mxgraph.aws3.route_53;fillColor=#F58536;gradientColor=none;" parent="1" vertex="1">
                    <mxGeometry x="600" y="20" width="70" height="50" as="geometry"/>
                </mxCell>
                <mxCell id="80oOBuQybgI6wOpb_mNg-25" value="" style="edgeStyle=orthogonalEdgeStyle;rounded=0;orthogonalLoop=1;jettySize=auto;html=1;" parent="1" source="80oOBuQybgI6wOpb_mNg-19" target="80oOBuQybgI6wOpb_mNg-33" edge="1">
                    <mxGeometry relative="1" as="geometry"/>
                </mxCell>
                <mxCell id="80oOBuQybgI6wOpb_mNg-20" value="" style="dashed=0;html=1;shape=mxgraph.aws3.permissions;fillColor=#D9A741;gradientColor=none;dashed=0;strokeColor=#009900;" parent="1" vertex="1">
                    <mxGeometry x="730" y="165" width="30" height="35" as="geometry"/>
                </mxCell>
                <mxCell id="80oOBuQybgI6wOpb_mNg-23" style="edgeStyle=orthogonalEdgeStyle;rounded=0;orthogonalLoop=1;jettySize=auto;html=1;exitX=0.5;exitY=1;exitDx=0;exitDy=0;" parent="1" source="80oOBuQybgI6wOpb_mNg-19" target="80oOBuQybgI6wOpb_mNg-19" edge="1">
                    <mxGeometry relative="1" as="geometry"/>
                </mxCell>
                <mxCell id="80oOBuQybgI6wOpb_mNg-30" value="" style="edgeStyle=orthogonalEdgeStyle;rounded=0;orthogonalLoop=1;jettySize=auto;html=1;" parent="1" source="80oOBuQybgI6wOpb_mNg-8" target="80oOBuQybgI6wOpb_mNg-3" edge="1">
                    <mxGeometry relative="1" as="geometry">
                        <Array as="points">
                            <mxPoint x="335" y="540"/>
                        </Array>
                    </mxGeometry>
                </mxCell>
                <mxCell id="lsDsI2hCd1Bi6timIz1T-13" value="" style="edgeStyle=orthogonalEdgeStyle;rounded=0;jumpStyle=arc;orthogonalLoop=1;jettySize=auto;html=1;endArrow=blockThin;endFill=1;" parent="1" source="80oOBuQybgI6wOpb_mNg-29" edge="1">
                    <mxGeometry relative="1" as="geometry">
                        <mxPoint x="297" y="630" as="targetPoint"/>
                    </mxGeometry>
                </mxCell>
                <mxCell id="80oOBuQybgI6wOpb_mNg-29" value="" style="outlineConnect=0;fontColor=#232F3E;gradientColor=none;fillColor=#232F3E;strokeColor=none;dashed=0;verticalLabelPosition=bottom;verticalAlign=top;align=center;html=1;fontSize=12;fontStyle=0;aspect=fixed;pointerEvents=1;shape=mxgraph.aws4.user;" parent="1" vertex="1">
                    <mxGeometry x="277.5" y="679.97" width="38" height="38" as="geometry"/>
                </mxCell>
                <mxCell id="80oOBuQybgI6wOpb_mNg-33" value="EC2 instance contents" style="points=[[0,0],[0.25,0],[0.5,0],[0.75,0],[1,0],[1,0.25],[1,0.5],[1,0.75],[1,1],[0.75,1],[0.5,1],[0.25,1],[0,1],[0,0.75],[0,0.5],[0,0.25]];outlineConnect=0;gradientColor=none;html=1;whiteSpace=wrap;fontSize=12;fontStyle=0;shape=mxgraph.aws4.group;grIcon=mxgraph.aws4.group_ec2_instance_contents;strokeColor=#D86613;fillColor=none;verticalAlign=top;align=left;spacingLeft=30;fontColor=#D86613;dashed=0;" parent="1" vertex="1">
                    <mxGeometry x="310" y="231.5" width="220" height="97" as="geometry"/>
                </mxCell>
                <mxCell id="80oOBuQybgI6wOpb_mNg-34" value="" style="shape=image;html=1;verticalAlign=top;verticalLabelPosition=bottom;labelBackgroundColor=#ffffff;imageAspect=0;aspect=fixed;image=https://cdn3.iconfinder.com/data/icons/social-media-2169/24/social_media_social_media_logo_docker-128.png;strokeColor=#009900;" parent="1" vertex="1">
                    <mxGeometry x="323.25" y="328.5" width="30" height="30" as="geometry"/>
                </mxCell>
                <mxCell id="lsDsI2hCd1Bi6timIz1T-12" style="edgeStyle=orthogonalEdgeStyle;rounded=0;jumpStyle=arc;orthogonalLoop=1;jettySize=auto;html=1;exitX=1;exitY=0.5;exitDx=0;exitDy=0;exitPerimeter=0;endArrow=blockThin;endFill=1;" parent="1" source="80oOBuQybgI6wOpb_mNg-35" target="80oOBuQybgI6wOpb_mNg-1" edge="1">
                    <mxGeometry relative="1" as="geometry">
                        <Array as="points">
                            <mxPoint x="364" y="100"/>
                            <mxPoint x="420" y="100"/>
                        </Array>
                    </mxGeometry>
                </mxCell>
                <mxCell id="80oOBuQybgI6wOpb_mNg-35" value="Internet Gateway" style="outlineConnect=0;dashed=0;verticalLabelPosition=bottom;verticalAlign=top;align=center;html=1;shape=mxgraph.aws3.internet_gateway;fillColor=#F58534;gradientColor=none;strokeColor=#009900;" parent="1" vertex="1">
                    <mxGeometry x="330" y="70" width="34" height="40" as="geometry"/>
                </mxCell>
                <mxCell id="80oOBuQybgI6wOpb_mNg-38" value="" style="whiteSpace=wrap;html=1;aspect=fixed;strokeColor=#009900;dashed=1;fontStyle=1" parent="1" vertex="1">
                    <mxGeometry x="350" y="262.5" width="47.5" height="47.5" as="geometry"/>
                </mxCell>
                <mxCell id="80oOBuQybgI6wOpb_mNg-42" value="" style="whiteSpace=wrap;html=1;aspect=fixed;strokeColor=#009900;dashed=1;fontStyle=1" parent="1" vertex="1">
                    <mxGeometry x="435.25" y="260" width="47.5" height="47.5" as="geometry"/>
                </mxCell>
                <mxCell id="80oOBuQybgI6wOpb_mNg-28" value="" style="shape=image;html=1;verticalAlign=top;verticalLabelPosition=bottom;labelBackgroundColor=#ffffff;imageAspect=0;aspect=fixed;image=https://cdn4.iconfinder.com/data/icons/logos-and-brands/512/194_Laravel_logo_logos-128.png;strokeColor=#009900;" parent="1" vertex="1">
                    <mxGeometry x="435.25" y="274.75" width="29" height="29" as="geometry"/>
                </mxCell>
                <mxCell id="80oOBuQybgI6wOpb_mNg-47" value="&lt;font style=&quot;font-size: 9px&quot;&gt;Container&lt;/font&gt;" style="text;html=1;strokeColor=none;fillColor=none;align=center;verticalAlign=middle;whiteSpace=wrap;rounded=0;dashed=1;" parent="1" vertex="1">
                    <mxGeometry x="353.25" y="303.75" width="40" height="20" as="geometry"/>
                </mxCell>
                <mxCell id="80oOBuQybgI6wOpb_mNg-48" value="&lt;font style=&quot;font-size: 9px&quot;&gt;Container&lt;/font&gt;" style="text;html=1;strokeColor=none;fillColor=none;align=center;verticalAlign=middle;whiteSpace=wrap;rounded=0;dashed=1;" parent="1" vertex="1">
                    <mxGeometry x="439" y="303.75" width="40" height="20" as="geometry"/>
                </mxCell>
                <mxCell id="80oOBuQybgI6wOpb_mNg-50" value="&lt;font style=&quot;font-size: 9px&quot;&gt;Private Subnet&lt;/font&gt;" style="text;html=1;strokeColor=none;fillColor=none;align=center;verticalAlign=middle;whiteSpace=wrap;rounded=0;dashed=1;" parent="1" vertex="1">
                    <mxGeometry x="760" y="184.38" width="80" height="20" as="geometry"/>
                </mxCell>
                <mxCell id="lsDsI2hCd1Bi6timIz1T-4" style="edgeStyle=orthogonalEdgeStyle;rounded=0;orthogonalLoop=1;jettySize=auto;html=1;entryX=0.5;entryY=0;entryDx=0;entryDy=0;entryPerimeter=0;endArrow=blockThin;endFill=1;jumpStyle=arc;" parent="1" source="lsDsI2hCd1Bi6timIz1T-3" target="80oOBuQybgI6wOpb_mNg-35" edge="1">
                    <mxGeometry relative="1" as="geometry"/>
                </mxCell>
                <mxCell id="lsDsI2hCd1Bi6timIz1T-3" value="" style="outlineConnect=0;fontColor=#232F3E;gradientColor=none;fillColor=#232F3E;strokeColor=none;dashed=0;verticalLabelPosition=bottom;verticalAlign=top;align=center;html=1;fontSize=12;fontStyle=0;aspect=fixed;pointerEvents=1;shape=mxgraph.aws4.user;" parent="1" vertex="1">
                    <mxGeometry x="361.5" width="38" height="38" as="geometry"/>
                </mxCell>
                <mxCell id="lsDsI2hCd1Bi6timIz1T-5" value="Internet" style="outlineConnect=0;fontColor=#232F3E;gradientColor=none;fillColor=#232F3E;strokeColor=none;dashed=0;verticalLabelPosition=bottom;verticalAlign=top;align=center;html=1;fontSize=12;fontStyle=0;aspect=fixed;pointerEvents=1;shape=mxgraph.aws4.user;" parent="1" vertex="1">
                    <mxGeometry x="390" width="38" height="38" as="geometry"/>
                </mxCell>
                <mxCell id="lsDsI2hCd1Bi6timIz1T-6" value="" style="outlineConnect=0;dashed=0;verticalLabelPosition=bottom;verticalAlign=top;align=center;html=1;shape=mxgraph.aws3.internet_3;fillColor=#D2D3D3;gradientColor=none;strokeColor=#009900;" parent="1" vertex="1">
                    <mxGeometry x="428" y="7" width="44.5" height="24" as="geometry"/>
                </mxCell>
                <mxCell id="lsDsI2hCd1Bi6timIz1T-9" value="" style="endArrow=classic;startArrow=classic;html=1;exitX=1;exitY=0.7;exitDx=0;exitDy=0;exitPerimeter=0;" parent="1" source="lsDsI2hCd1Bi6timIz1T-6" target="80oOBuQybgI6wOpb_mNg-12" edge="1">
                    <mxGeometry width="50" height="50" relative="1" as="geometry">
                        <mxPoint x="470" y="100" as="sourcePoint"/>
                        <mxPoint x="520" y="50" as="targetPoint"/>
                    </mxGeometry>
                </mxCell>
                <mxCell id="lsDsI2hCd1Bi6timIz1T-11" value="" style="shape=image;html=1;verticalAlign=top;verticalLabelPosition=bottom;labelBackgroundColor=#ffffff;imageAspect=0;aspect=fixed;image=https://cdn4.iconfinder.com/data/icons/logos-brands-5/24/vue-dot-js-128.png;dashed=1;strokeColor=#009900;fillColor=#ffffff;" parent="1" vertex="1">
                    <mxGeometry x="464.25" y="279.25" width="20" height="20" as="geometry"/>
                </mxCell>
                <mxCell id="80oOBuQybgI6wOpb_mNg-8" value="github actions" style="dashed=0;outlineConnect=0;html=1;align=center;labelPosition=center;verticalLabelPosition=bottom;verticalAlign=top;shape=mxgraph.weblogos.github" parent="1" vertex="1">
                    <mxGeometry x="272" y="550" width="49" height="56.5" as="geometry"/>
                </mxCell>
            </root>
        </mxGraphModel>
    </diagram>
</mxfile>